<svg id="Layer_1" data-name="Layer 1" xmlns="http://www.w3.org/2000/svg" xmlns:xlink="http://www.w3.org/1999/xlink" viewBox="0 0 339.38 339.37"><defs><style>.cls-1{fill-rule:evenodd;fill:url(#linear-gradient);}</style><linearGradient id="linear-gradient" x1="7.02" y1="88.59" x2="328.89" y2="88.59" gradientTransform="translate(42.05 42.41) rotate(17.11)" gradientUnits="userSpaceOnUse"><stop offset="0" stop-color="#070018"/><stop offset="0.25" stop-color="#1500bc"/><stop offset="0.75" stop-color="#df000f"/><stop offset="1" stop-color="#ffd084"/></linearGradient></defs><title>portal</title><path class="cls-1" d="M100,245.47c27.45,43.67,70.07,55,97.82,57.33C281,309.93,349.44,224.41,346.07,145c-9.9,58.79-48,124.28-114.19,137.15a105,105,0,0,1-67.16-9.59c-23.24-11.75-38.73-31.43-41.41-48.2h0A94.21,94.21,0,0,0,245.47,253c43.67-27.45,55-70.07,57.33-97.82C309.93,72,224.41,3.56,145,6.93c58.79,9.9,124.28,48,137.15,114.19a105,105,0,0,1-9.59,67.16c-11.75,23.24-31.43,38.73-48.2,41.41v0A94.21,94.21,0,0,0,253,107.53c-27.45-43.67-70.07-55-97.82-57.33C72,43.07,3.56,128.59,6.93,208c9.9-58.79,48-124.28,114.19-137.15a105,105,0,0,1,67.16,9.59c23.24,11.75,38.73,31.43,41.41,48.2h0A94.21,94.21,0,0,0,107.53,100c-43.67,27.45-55,70.07-57.33,97.82C43.07,281,128.59,349.44,208,346.07c-58.79-9.9-124.28-48-137.15-114.19a105,105,0,0,1,9.59-67.16c11.75-23.24,31.43-38.73,48.2-41.41v0A94.21,94.21,0,0,0,100,245.47Zm76.4-140.78c30.79,0,55.81,32.07,55.87,71.72s-24.85,71.85-55.65,71.9-55.81-32.07-55.87-71.72S145.59,104.74,176.39,104.69Z" transform="translate(-6.81 -6.81)"/></svg>