<svg xmlns="http://www.w3.org/2000/svg" xmlns:xlink="http://www.w3.org/1999/xlink" viewBox="0 0 642 642"><defs><style>.cls-1{fill-rule:evenodd;fill:url(#New_Gradient_Swatch);}.cls-2{fill:url(#linear-gradient);}</style><linearGradient id="New_Gradient_Swatch" x1="6878.5" y1="7199.5" x2="7520.5" y2="7199.5" gradientUnits="userSpaceOnUse"><stop offset="0" stop-color="#338bf4"/><stop offset="0.76" stop-color="#80e5d8"/><stop offset="1" stop-color="#4fd0c4"/></linearGradient><linearGradient id="linear-gradient" x1="7049.39" y1="7456.5" x2="7049.39" y2="7456.5" xlink:href="#New_Gradient_Swatch"/></defs><title>portal</title><g id="bg"><text x="-6878.5" y="-6878.5"/><path class="cls-1" d="M7094.14,7375.89c77.95,67.13,165.83,63.62,220.11,51.87,162.79-35.24,243-238.44,190-387.86,15.63,117.88-18.49,265.07-137.17,328.48-40.77,21.78-88.2,28.91-133.66,21.13-51.2-8.76-92.27-37.19-107.23-67.58l.05,0a187.94,187.94,0,0,0,249.65-17.05c67.13-77.95,63.62-165.83,51.87-220.11-35.24-162.79-238.44-243-387.86-190,117.88-15.63,265.07,18.49,328.48,137.17,21.78,40.77,28.91,88.2,21.13,133.66-8.76,51.2-37.19,92.27-67.58,107.23l0-.05a187.94,187.94,0,0,0-17.05-249.65c-77.95-67.13-165.83-63.62-220.11-51.87-162.79,35.24-243,238.44-190,387.86-15.63-117.88,18.49-265.07,137.17-328.48,40.77-21.78,88.2-28.91,133.66-21.13,51.2,8.76,92.27,37.19,107.23,67.58l-.05,0a187.94,187.94,0,0,0-249.65,17.05c-67.13,77.95-63.62,165.83-51.87,220.11,35.24,162.79,238.44,243,387.86,190-117.88,15.63-265.07-18.49-328.48-137.17-21.78-40.77-28.91-88.2-21.13-133.66,8.76-51.2,37.19-92.27,67.58-107.23l0,.05a187.94,187.94,0,0,0,17.05,249.65Zm63-313.2c58.68-18.17,125.21,28.35,148.61,103.91s-5.21,151.55-63.89,169.71S7116.65,7308,7093.25,7232.4,7098.46,7080.85,7157.14,7062.69Z" transform="translate(-6878.5 -6878.5)"/></g><g id="Layer_3" data-name="Layer 3"><path class="cls-2" d="M7049.39,7456.5" transform="translate(-6878.5 -6878.5)"/></g></svg>