<svg id="Layer_1" data-name="Layer 1" xmlns="http://www.w3.org/2000/svg" xmlns:xlink="http://www.w3.org/1999/xlink" viewBox="0 0 351.83 351.83"><defs><style>.cls-1{fill-rule:evenodd;fill:url(#linear-gradient);}</style><linearGradient id="linear-gradient" x1="7026.61" y1="7111.88" x2="7354.94" y2="7111.88" gradientTransform="matrix(0.88, 0.48, -0.48, 0.88, 4251.97, -2475.12)" gradientUnits="userSpaceOnUse"><stop offset="0" stop-color="#2d8400"/><stop offset="0.56" stop-color="#234abb"/><stop offset="0.76" stop-color="#1f35ff"/><stop offset="1" stop-color="#c7ffea"/></linearGradient></defs><title>portal</title><path class="cls-1" d="M7109.22,7253.27c18.76,49.15,59.16,68.93,86.44,76.83,81.82,23.7,167.31-48.23,179.76-128.36-21.62,56.84-72.74,114.79-141.55,114.48a107.17,107.17,0,0,1-65.28-23c-20.91-16.38-32.49-39.15-31.83-56.46h0a96.11,96.11,0,0,0,116.48,53c49.15-18.76,68.93-59.16,76.83-86.44,23.7-81.82-48.23-167.31-128.36-179.76,56.84,21.62,114.79,72.74,114.48,141.55a107.17,107.17,0,0,1-23,65.28c-16.38,20.91-39.15,32.49-56.46,31.83v0a96.11,96.11,0,0,0,53-116.48c-18.76-49.15-59.16-68.93-86.44-76.83-81.82-23.7-167.31,48.23-179.76,128.36,21.62-56.84,72.74-114.79,141.55-114.48a107.17,107.17,0,0,1,65.28,23c20.91,16.38,32.49,39.15,31.83,56.46h0a96.11,96.11,0,0,0-116.48-53c-49.15,18.76-68.93,59.16-76.83,86.44-23.7,81.82,48.23,167.31,128.36,179.76-56.84-21.62-114.79-72.74-114.48-141.55a107.17,107.17,0,0,1,23-65.28c16.38-20.91,39.15-32.49,56.46-31.83v0a96.11,96.11,0,0,0-53,116.48Zm104.47-125.63c30.82,6.09,49.45,43.19,41.61,82.88s-39.17,66.92-70,60.84-49.45-43.19-41.61-82.88S7182.87,7121.56,7213.69,7127.64Z" transform="translate(-7023.58 -7023.58)"/></svg>